<?xml version="1.0" encoding="UTF-8"?>
<svg version="1.1" xmlns="http://www.w3.org/2000/svg" width="512" height="512">
<path d="M0 0 C12.25580415 10.92966868 23.71915492 22.49662414 33.31347656 35.84741211 C33.91651611 36.66798096 33.91651611 36.66798096 34.53173828 37.50512695 C51.91416257 61.34048818 63.33806407 89.06468393 69.31347656 117.84741211 C69.4771875 118.59555176 69.64089844 119.34369141 69.80957031 120.11450195 C80.73721562 172.00952829 67.94357231 228.79634642 39.50585938 272.95166016 C34.87316187 279.95027808 29.79064199 286.48384551 24.31347656 292.84741211 C25.92917495 296.8999349 28.80817591 299.60992141 31.85546875 302.61645508 C32.71346132 303.47489423 32.71346132 303.47489423 33.58878708 304.35067558 C35.50793409 306.26843289 37.43413454 308.17894559 39.36035156 310.08959961 C40.73713777 311.46254782 42.11346956 312.83595184 43.48937988 314.20977783 C46.45381845 317.16789159 49.42133683 320.12286859 52.39123535 323.07550049 C57.08529259 327.74254327 61.77173916 332.4171777 66.45703125 337.09301758 C76.40329054 347.01706355 86.35795578 356.93265834 96.31347656 366.84741211 C107.06052171 377.55044902 117.80613805 388.25489611 128.54202652 398.96912575 C133.20182411 403.6189447 137.8664591 408.26383964 142.53482056 412.90505981 C145.43555451 415.7908971 148.3321588 418.68085205 151.22764587 421.57195282 C152.57314011 422.91369628 153.92036543 424.25370634 155.26942444 425.59186554 C157.10807561 427.41612492 158.9404939 429.24642566 160.77148438 431.07836914 C161.30902721 431.60872206 161.84657005 432.13907497 162.40040207 432.68549919 C166.98001382 437.29077848 168.60596569 440.23705741 168.68847656 446.72241211 C168.58711074 451.93008118 168.01296055 454.95321844 164.31347656 458.84741211 C159.66699402 463.26157052 155.4255459 463.31499472 149.31347656 463.37866211 C142.99968612 462.26059505 138.6420495 457.46472371 134.27700806 453.05145264 C133.70018418 452.47633761 133.1233603 451.90122258 132.52905691 451.30867982 C130.60818039 449.39108294 128.69451387 447.46645304 126.78076172 445.54174805 C125.40101365 444.16143553 124.02082444 442.78156386 122.64022827 441.40209961 C118.90067438 437.66311893 115.16731398 433.91800908 111.43504 430.17176342 C107.53086322 426.25507424 103.62101241 422.34405757 99.71176147 418.43243408 C92.31309035 411.0275497 84.91953178 403.61758235 77.52779901 396.20577264 C69.11097413 387.766584 60.6884616 379.33308159 52.26546788 370.90005064 C34.94180397 353.55548821 17.62529043 336.20380165 0.31347656 318.84741211 C-3.29284247 320.56548085 -6.07965558 322.69603798 -9.18652344 325.22241211 C-41.12987989 350.31811973 -83.78721682 366.81491143 -124.57714844 367.05053711 C-125.39560745 367.05759674 -126.21406647 367.06465637 -127.05732727 367.07192993 C-161.35041911 367.30059522 -161.35041911 367.30059522 -176.68652344 363.84741211 C-178.04173096 363.54939697 -178.04173096 363.54939697 -179.42431641 363.24536133 C-209.50397964 356.44496329 -238.37327122 344.0188309 -262.68652344 324.84741211 C-263.27900879 324.38044922 -263.87149414 323.91348633 -264.48193359 323.43237305 C-279.54214737 311.3758236 -293.42185844 297.52253324 -304.68652344 281.84741211 C-305.0885498 281.30036621 -305.49057617 280.75332031 -305.90478516 280.18969727 C-323.29067791 256.34957996 -334.69996635 228.6316139 -340.68652344 199.84741211 C-340.93208984 198.73317871 -340.93208984 198.73317871 -341.18261719 197.59643555 C-352.03631623 146.48986506 -339.61679614 90.36512872 -312.21630859 46.4934082 C-298.03010728 24.8230373 -279.73066851 4.97043684 -258.68652344 -10.15258789 C-258.13947754 -10.55461426 -257.59243164 -10.95664062 -257.02880859 -11.37084961 C-233.19344737 -28.7532739 -205.46925162 -40.1771754 -176.68652344 -46.15258789 C-175.56431396 -46.3981543 -175.56431396 -46.3981543 -174.41943359 -46.64868164 C-113.76158038 -59.42153392 -46.42517048 -40.3296827 0 0 Z M-241.68652344 18.84741211 C-242.22148437 19.26958008 -242.75644531 19.69174805 -243.30761719 20.12670898 C-280.42057225 49.71917315 -304.71058261 91.37868828 -310.47610474 138.71974182 C-310.80923482 142.08822081 -310.86794955 145.45399352 -310.88964844 148.83569336 C-310.89670807 149.57216095 -310.9037677 150.30862854 -310.91104126 151.06741333 C-311.1793983 173.63132225 -311.1793983 173.63132225 -307.68652344 195.84741211 C-307.48784668 196.67128418 -307.28916992 197.49515625 -307.08447266 198.34399414 C-299.13251154 230.45562138 -283.59643397 258.08519836 -260.68652344 281.84741211 C-259.92339844 282.67370117 -259.16027344 283.49999023 -258.37402344 284.35131836 C-226.98472587 317.38431225 -181.42647715 333.37327854 -136.68652344 334.84741211 C-89.94403695 335.32805464 -46.03592209 316.00063434 -12.68652344 283.84741211 C-11.86023438 283.08428711 -11.03394531 282.32116211 -10.18261719 281.53491211 C18.32854535 254.44244305 37.85085448 212.35145503 39.47460938 172.93603516 C39.49409427 171.57713466 39.50788138 170.21814307 39.51660156 168.85913086 C39.52719101 167.75442947 39.52719101 167.75442947 39.53799438 166.62741089 C39.80635143 144.06350197 39.80635143 144.06350197 36.31347656 121.84741211 C36.1147998 121.02354004 35.91612305 120.19966797 35.71142578 119.35083008 C27.75946467 87.23920284 12.2233871 59.60962586 -10.68652344 35.84741211 C-11.83121094 34.60797852 -11.83121094 34.60797852 -12.99902344 33.34350586 C-44.83760572 -0.16229948 -89.63960533 -14.82843901 -134.68652344 -17.15258789 C-172.93321036 -17.15258789 -211.61985369 -5.05078854 -241.68652344 18.84741211 Z " fill="#000000" transform="translate(343.6865234375,49.152587890625)"/>
</svg>
